<?xml version="1.0" encoding="UTF-8" standalone="no"?>
<!DOCTYPE svg  PUBLIC '-//W3C//DTD SVG 1.1//EN'  'http://www.w3.org/Graphics/SVG/1.1/DTD/svg11.dtd'>
<svg xmlns="http://www.w3.org/2000/svg" xml:space="preserve" height="19px" width="18px" version="1.1" y="0px" x="0px" xmlns:xlink="http://www.w3.org/1999/xlink" viewBox="0 0 18 19" enable-background="new 0 0 18 19">
<g fill="#010101">
<path d="m15 17.431c-0.041 0.679-0.09 1.569-0.79 1.569h-10.1c-0.69 0-1.06-0.89-1.11-1.569l-1-12.431 14 0.021-1 12.41z"/>
<path clip-rule="evenodd" d="m7.99 1.57c0-0.34 0.38-0.6 0.62-0.6h0.64c0.24 0 0.75 0.3 0.75 0.64v1.39h-2.03l0.02-1.43zm10.01 0.651h-6.02v-0.341c0-1.04-1.38-1.88-2.32-1.88h-1.73c-0.94 0-1.93 0.84-1.93 1.88v0.341h-5.92v1.779h17.82l0.1-1.779z" fill-rule="evenodd"/>
</g>
</svg>
