<?xml version="1.0" encoding="UTF-8" standalone="no"?>
<!DOCTYPE svg  PUBLIC '-//W3C//DTD SVG 1.1//EN'  'http://www.w3.org/Graphics/SVG/1.1/DTD/svg11.dtd'>
<svg xmlns="http://www.w3.org/2000/svg" xml:space="preserve" height="17px" width="19px" version="1.1" y="0px" x="0px" xmlns:xlink="http://www.w3.org/1999/xlink" viewBox="0 0 19 17" enable-background="new 0 0 19 17">
<path fill="#010101" clip-rule="evenodd" d="m18.68 3.141l-3.16-2.82c-0.2-0.201-0.47-0.321-0.76-0.321h-10.61c-0.3 0-0.56 0.12-0.76 0.311l-3.08 2.83c-0.19 0.199-0.31 0.46-0.31 0.759v12.04c0 0.581 0.48 1.06 1.07 1.06h16.86c0.59 0 1.07-0.479 1.07-1.06v-12.04c0-0.299-0.12-0.56-0.32-0.759zm-14.6-2.161h10.92l1.71 2.17h-14.47l1.84-2.17zm5.41 13.07l4.51-5.05h-2.95v-4h-3.05v4h-2.95l4.44 5.05z" fill-rule="evenodd"/>
</svg>
