<?xml version="1.0" encoding="UTF-8" standalone="no"?>
<!-- Created with Inkscape (http://www.inkscape.org/) -->

<svg
   xmlns:dc="http://purl.org/dc/elements/1.1/"
   xmlns:cc="http://creativecommons.org/ns#"
   xmlns:rdf="http://www.w3.org/1999/02/22-rdf-syntax-ns#"
   xmlns:svg="http://www.w3.org/2000/svg"
   xmlns="http://www.w3.org/2000/svg"
   version="1.1"
   width="18"
   height="18"
   viewBox="0 0 18 18"
   id="svg3011"
   xml:space="preserve"><metadata
   id="metadata3035"><rdf:RDF><cc:Work
       rdf:about=""><dc:format>image/svg+xml</dc:format><dc:type
         rdf:resource="http://purl.org/dc/dcmitype/StillImage" /><dc:title></dc:title></cc:Work></rdf:RDF></metadata><defs
   id="defs3033" />
<polygon
   points="15,13 15,10 13,10 13,13 10,13 10,15 13,15 13,18 15,18 15,15 18,15 18,13 "
   id="polygon3013" />
<polygon
   points="13,10 13,9 13,1 1,1 1,14 9,14 10,14 13,14 "
   id="polygon3015"
   style="fill:none" />
<polygon
   points="0,15 9,15 9,14 1,14 1,1 13,1 13,9 14,9 14,0 0,0 "
   id="polygon3017" />
<rect
   width="2"
   height="2"
   x="2"
   y="3"
   id="rect3019" />
<rect
   width="2"
   height="2"
   x="2"
   y="6"
   id="rect3021" />
<rect
   width="2"
   height="2"
   x="2"
   y="9"
   id="rect3023" />
<rect
   width="7"
   height="1"
   x="5"
   y="3"
   id="rect3025" />
<rect
   width="7"
   height="1"
   x="5"
   y="6"
   id="rect3027" />
<rect
   width="7"
   height="1"
   x="5"
   y="9"
   id="rect3029" />
</svg>