<?xml version="1.0" encoding="UTF-8" standalone="no"?>
<!DOCTYPE svg  PUBLIC '-//W3C//DTD SVG 1.1//EN'  'http://www.w3.org/Graphics/SVG/1.1/DTD/svg11.dtd'>
<svg xmlns="http://www.w3.org/2000/svg" xml:space="preserve" height="18px" width="18px" version="1.1" y="0px" x="0px" xmlns:xlink="http://www.w3.org/1999/xlink" viewBox="0 0 18 18" enable-background="new 0 0 18 18">
<path clip-rule="evenodd" d="m3.17 7.141l2.46-2.11 0.83 0.769c0.23 0.221 0.61 0.221 0.85 0 0.23-0.22 0.23-0.59 0-0.81l-0.83-0.77 1.32-1.25 4.67 4.14-9.3 0.031zm4.63-6l-2.26 2.19-3.14-3.161c-0.23-0.229-0.61-0.229-0.85 0-0.229 0.221-0.229 0.58 0 0.801l3.15 3.17-4.35 4.19c-0.47 0.45-0.47 1.169 0 1.621l6 5.709c0.47 0.451 1.23 0.451 1.7 0l7.55-7.089-7.8-7.431z" fill-rule="evenodd"/>
<path d="m15.6 11.141s1.42 2.26 2.16 3.59c0.16 0.301 0.24 0.631 0.24 0.98 0 1.269-1.08 2.289-2.4 2.289-1.33 0-2.399-1.02-2.399-2.289 0-0.35 0.08-0.68 0.239-0.98 0.73-1.331 2.16-3.59 2.16-3.59z"/>
</svg>
