<?xml version="1.0" encoding="UTF-8" standalone="no"?>
<!-- Created with Inkscape (http://www.inkscape.org/) -->

<svg
   xmlns:dc="http://purl.org/dc/elements/1.1/"
   xmlns:cc="http://creativecommons.org/ns#"
   xmlns:rdf="http://www.w3.org/1999/02/22-rdf-syntax-ns#"
   xmlns:svg="http://www.w3.org/2000/svg"
   xmlns="http://www.w3.org/2000/svg"
   version="1.1"
   width="20"
   height="20"
   id="svg3031">
  <metadata
     id="metadata3037">
    <rdf:RDF>
      <cc:Work
         rdf:about="">
        <dc:format>image/svg+xml</dc:format>
        <dc:type
           rdf:resource="http://purl.org/dc/dcmitype/StillImage" />
        <dc:title></dc:title>
      </cc:Work>
    </rdf:RDF>
  </metadata>
  <defs
     id="defs3035" />
  <path
     d="m 1.6187493,16.839578 c -0.161584,-0.039 -0.3179089,-0.145095 -0.4068367,-0.276105 -0.069673,-0.102644 -0.072861,-0.377546 -0.072861,-6.281265 0,-6.1731479 1.02e-5,-6.1739389 0.082564,-6.2845103 0.04541,-0.060854 0.1323262,-0.1477418 0.1931475,-0.1931514 l 0.1105847,-0.082564 8.5436262,0 8.543627,0 0.113059,0.08377 c 0.06219,0.046052 0.153773,0.1435987 0.203534,0.2167099 l 0.09048,0.1329473 -0.01039,6.1574365 -0.01039,6.157444 -0.08427,0.113055 c -0.04635,0.06218 -0.145462,0.149094 -0.220246,0.193143 -0.134715,0.07935 -0.21357,0.08014 -8.545313,0.08619 -4.6251393,0.0034 -8.4637811,-0.007 -8.530315,-0.0231 z M 17.707609,15.608815 c 0.06656,-0.01813 0.0697,-0.296957 0.06007,-5.332293 l -0.01016,-5.3131611 -7.688544,0 -7.688543,0 -0.010158,5.2815901 c -0.00666,3.466512 0.00352,5.298126 0.029761,5.329698 0.030803,0.03712 1.775629,0.0487 7.638635,0.0507 4.179293,0.0014 7.630315,-0.006 7.668938,-0.01653 z M 3.6070226,14.117611 c -0.045825,-0.02903 -0.043271,-0.07003 0.015546,-0.249665 0.446558,-1.363679 1.7641481,-2.057178 3.7690009,-1.983761 0.3554597,0.013 0.8197726,0.05326 1.0318073,0.08938 0.2120335,0.0361 0.4097486,0.05639 0.4393659,0.04503 0.029613,-0.01136 0.3472849,-0.477192 0.7059301,-1.035179 1.6481312,-2.5641719 2.0174882,-3.1196448 2.0670022,-3.1085469 0.02877,0.00627 0.526504,0.6874728 1.106086,1.5133906 0.579582,0.8259183 1.078607,1.5016663 1.108943,1.5016663 0.03033,0 0.287974,-0.32436 0.572529,-0.720798 0.284554,-0.3964372 0.543001,-0.7266242 0.574326,-0.7337513 0.03132,-0.00705 0.05695,-0.00548 0.05695,0.00392 0,0.0094 0.349992,1.0536863 0.777758,2.3206133 0.575019,1.703056 0.766042,2.315226 0.732814,2.348455 -0.05494,0.05494 -12.8714963,0.06382 -12.9580644,0.009 z M 5.9622249,9.8531034 C 5.6676983,9.7397751 5.4951488,9.629705 5.328326,9.4487244 4.782123,8.8561594 4.7964688,7.9895621 5.3618389,7.4241896 5.5908411,7.1951913 5.7833605,7.0916765 6.1029579,7.025708 6.7484254,6.892471 7.3992217,7.216643 7.6951132,7.8187865 7.8162264,8.0652578 7.8263499,8.1158522 7.8247969,8.4669035 7.8227606,8.9316985 7.7468612,9.1265495 7.4426708,9.448184 7.1449576,9.7629734 6.8811816,9.8818466 6.4481846,9.8963592 6.2273159,9.903408 6.0537201,9.8882923 5.9622234,9.8531269 z"
     id="path3041"
     style="fill:#000000" />
</svg>
