<?xml version="1.0" encoding="UTF-8" standalone="no"?>
<!-- Created with Inkscape (http://www.inkscape.org/) -->

<svg
   xmlns:dc="http://purl.org/dc/elements/1.1/"
   xmlns:cc="http://creativecommons.org/ns#"
   xmlns:rdf="http://www.w3.org/1999/02/22-rdf-syntax-ns#"
   xmlns:svg="http://www.w3.org/2000/svg"
   xmlns="http://www.w3.org/2000/svg"
   version="1.1"
   width="20"
   height="20"
   id="svg3043">
  <metadata
     id="metadata3049">
    <rdf:RDF>
      <cc:Work
         rdf:about="">
        <dc:format>image/svg+xml</dc:format>
        <dc:type
           rdf:resource="http://purl.org/dc/dcmitype/StillImage" />
        <dc:title></dc:title>
      </cc:Work>
    </rdf:RDF>
  </metadata>
  <defs
     id="defs3047" />
  <path
     d="M 1.6196623,13.983908 C 1.4273291,13.882651 1.2174105,13.620001 1.1478816,13.393602 1.1291585,13.332632 1.1137073,11.903314 1.1135403,10.217333 L 1.1132458,7.1519142 1.2266419,6.8964761 C 1.3097024,6.709372 1.3989077,6.6059185 1.5600983,6.5097578 L 1.7801588,6.3784766 5.130037,6.3781354 C 8.4098103,6.377794 8.4839567,6.3802105 8.6730059,6.4920052 9.0048628,6.688266 9.1873948,7.135752 9.1544108,7.6721949 l -0.01529,0.2486818 -3.3354805,0.014333 -3.3354811,0.014332 0,2.2885003 0,2.288496 c 2.2236546,0.0096 4.447308,0.01912 6.6709616,0.02868 l -0.0018,0.335012 c -0.0025,0.449812 -0.04352,0.602715 -0.226902,0.84483 -0.280337,0.37013 -0.12714,0.355764 -3.7795234,0.354412 -3.1315619,-0.0011 -3.3237987,-0.007 -3.5111994,-0.105595 z m 9.8795777,0.0019 c -0.378243,-0.203548 -0.505741,-0.473614 -0.505741,-1.07126 l 0,-0.387215 3.32344,0 3.323439,0 0,-2.289263 0,-2.2892641 -3.323439,0 -3.32344,0 -0.006,-0.1256304 c -0.01569,-0.3297496 0.02241,-0.7535599 0.07905,-0.8794118 0.07387,-0.1641472 0.290153,-0.4054735 0.447639,-0.4994815 2.483277,-0.1127441 3.94658,-0.066439 6.860522,-0.066439 0.201919,0.1404942 0.430391,0.3083619 0.537676,0.5380037 0.09863,0.2187514 0.100687,0.2870505 0.100687,3.3222231 0,2.998489 -0.0031,3.105018 -0.09633,3.288385 -0.05298,0.104229 -0.179613,0.267548 -0.281402,0.362933 l -0.18507,0.173427 -3.379199,0.01332 c -3.204679,0.01271 -3.389147,0.0079 -3.571861,-0.09035 z M 6.2222324,11.483023 C 5.9783014,11.245084 5.9359622,11.058382 5.9371494,10.225908 5.9384594,9.3055699 6.0093244,9.067041 6.3318328,8.8973563 6.5301307,8.7930236 6.6759937,8.788753 10.078349,8.7876575 c 3.276485,-0.00105 3.552488,0.00613 3.705342,0.096486 0.327734,0.1937271 0.362852,0.3112016 0.380066,1.2713715 0.01744,0.973355 -0.02553,1.166983 -0.303166,1.365898 -0.153899,0.110255 -0.231612,0.11255 -3.820356,0.11255 l -3.6632603,0 -0.1547423,-0.150947 z m 7.0832246,-1.272866 0,-0.4187672 -3.251191,0 -3.2511902,0 0,0.4187672 0,0.418769 3.2511902,0 3.251191,0 z"
     id="path3097"
     style="fill:#000000" />
</svg>
