<?xml version="1.0" encoding="UTF-8" standalone="no"?>
<!-- Created with Inkscape (http://www.inkscape.org/) -->

<svg
   xmlns:dc="http://purl.org/dc/elements/1.1/"
   xmlns:cc="http://creativecommons.org/ns#"
   xmlns:rdf="http://www.w3.org/1999/02/22-rdf-syntax-ns#"
   xmlns:svg="http://www.w3.org/2000/svg"
   xmlns="http://www.w3.org/2000/svg"
   xmlns:xlink="http://www.w3.org/1999/xlink"
   version="1.1"
   width="20"
   height="20"
   id="svg3002">
  <metadata
     id="metadata3008">
    <rdf:RDF>
      <cc:Work
         rdf:about="">
        <dc:format>image/svg+xml</dc:format>
        <dc:type
           rdf:resource="http://purl.org/dc/dcmitype/StillImage" />
        <dc:title></dc:title>
      </cc:Work>
    </rdf:RDF>
  </metadata>
  <defs
     id="defs3006">
    <linearGradient
       id="linearGradient3784">
      <stop
         id="stop3800"
         style="stop-color:#3d3b39;stop-opacity:0"
         offset="0" />
      <stop
         id="stop3806"
         style="stop-color:#2d462a;stop-opacity:0"
         offset="0.125" />
      <stop
         id="stop3804"
         style="stop-color:#1e521c;stop-opacity:0"
         offset="0.25" />
      <stop
         id="stop3802"
         style="stop-color:#006900;stop-opacity:0"
         offset="0.5" />
      <stop
         id="stop3788"
         style="stop-color:#00d300;stop-opacity:0"
         offset="1" />
    </linearGradient>
    <linearGradient
       x1="1.6688946"
       y1="15.623134"
       x2="18.674351"
       y2="15.623134"
       id="linearGradient3794"
       xlink:href="#linearGradient3784"
       gradientUnits="userSpaceOnUse" />
  </defs>
  <path
     d="m 1.4539848,18.260446 c -0.49344099,-0.202209 -0.47223699,-1.372688 0.0474,-2.61635 0.465663,-1.114489 2.23788,-2.300098 4.21726,-2.821336 0.66608,-0.175402 1.507063,-0.633999 1.868851,-1.019105 l 0.657797,-0.700193 -0.596179,-1.3140647 c -0.845057,-1.8626287 -0.813804,-4.3476879 0.07123,-5.6642216 0.618412,-0.9199145 0.830013,-1.0202498 2.3192022,-1.0997052 1.411422,-0.075306 1.732694,0.012618 2.316399,0.6339441 0.974863,1.0376933 1.187092,3.5668325 0.491961,5.8626937 -0.662242,2.1872367 -0.514278,2.4107947 2.169441,3.2778147 1.087987,0.351492 2.342666,0.898629 2.788176,1.215861 1.001863,0.713389 1.524865,2.193533 1.20029,3.396929 l -0.241055,0.893738 -8.469193,0.0533 c -4.6580562,0.02931 -8.6367692,-0.01537 -8.8415842,-0.0993 z M 18.658444,16.816887 c 0,-1.41863 -0.779891,-2.106132 -2.877124,-2.536286 -0.957287,-0.196345 -2.129195,-0.476853 -2.604238,-0.623351 -1.45519,-0.448762 -4.4643832,-0.298198 -7.3586472,0.368189 -3.116069,0.717457 -4.141016,1.441887 -4.141016,2.926863 l 0,0.90728 8.4905132,0 8.490512,0 0,-1.042695 z"
     id="path3012"
     style="fill:#000000" />
  <path
     d="m 1.7313946,17.147431 c 0,-0.806744 0.093963,-1.114003 0.4678412,-1.529846 0.5133109,-0.570925 1.4749067,-1.013039 3.0850892,-1.418433 1.7821588,-0.448693 3.4194434,-0.687815 5.099821,-0.744821 1.293747,-0.04389 1.900002,0.01858 3.091092,0.318501 0.464427,0.116945 1.369751,0.332634 2.011831,0.479309 1.685878,0.385117 2.362859,0.69748 2.758764,1.272909 0.284982,0.414206 0.364613,0.755525 0.36536,1.566024 l 6.57e-4,0.713472 -8.440228,0 -8.4402274,0 0,-0.657115 z"
     id="path3014"
     style="fill:url(#linearGradient3794);fill-opacity:1;fill-rule:evenodd;stroke:#333333;stroke-width:0.06072106;stroke-opacity:1" />
  <path
     d="m 1.8573305,17.105025 c 0.051429,-0.731641 0.2014307,-1.140903 0.5383791,-1.468907 1.0008012,-0.974234 4.3701521,-1.846497 7.9398594,-2.055483 1.109362,-0.06495 2.119086,0.07691 4.341556,0.609932 2.539351,0.609025 3.201969,0.91988 3.589041,1.683728 0.123842,0.244391 0.154132,0.415136 0.186325,1.050321 l 0.03844,0.758488 -8.337119,0 -8.3371184,0 0.040635,-0.578079 z"
     id="path3810"
     style="fill:#171617;fill-opacity:0;fill-rule:evenodd;stroke:#333333;stroke-width:0.06072106;stroke-opacity:1" />
  <path
     d="m 1.60755,17.316238 c 0.065582,-0.916344 0.1882117,-1.336165 0.5144743,-1.761296 0.909941,-1.185682 3.9818592,-2.215656 7.8002214,-2.615311 1.2751633,-0.133468 2.3183433,0.01333 4.4956653,0.632662 2.474916,0.703976 3.312036,1.086854 3.787987,1.732529 0.349418,0.474023 0.425166,0.761632 0.478052,1.815126 l 0.04095,0.815659 -8.580836,0 -8.5808365,0 0.044328,-0.619369 z"
     id="path3812"
     style="fill:#171617;fill-opacity:1;fill-rule:evenodd;stroke:#000000;stroke-width:0.06951302;stroke-opacity:1" />
</svg>
