<?xml version="1.0" encoding="UTF-8" standalone="no"?>
<!-- Created with Inkscape (http://www.inkscape.org/) -->

<svg
   xmlns:dc="http://purl.org/dc/elements/1.1/"
   xmlns:cc="http://creativecommons.org/ns#"
   xmlns:rdf="http://www.w3.org/1999/02/22-rdf-syntax-ns#"
   xmlns:svg="http://www.w3.org/2000/svg"
   xmlns="http://www.w3.org/2000/svg"
   version="1.1"
   width="20"
   height="20"
   viewBox="0 0 20 20"
   id="Layer_1"
   xml:space="preserve"><metadata
   id="metadata9"><rdf:RDF><cc:Work
       rdf:about=""><dc:format>image/svg+xml</dc:format><dc:type
         rdf:resource="http://purl.org/dc/dcmitype/StillImage" /><dc:title></dc:title></cc:Work></rdf:RDF></metadata><defs
   id="defs7" />
<path
   d="m 1.8051553,17.317181 c 0,0.777205 0.6295661,1.406693 1.4066907,1.406693 h 14.067725 c 0.777202,0 1.406691,-0.629488 1.406691,-1.406693 V 3.2494599 c 0,-0.7771658 -0.629489,-1.4066929 -1.406691,-1.4066929 H 3.2118851 c -0.7771637,0 -1.4066907,0.6295674 -1.4066907,1.4066929 V 17.317181 z m 3.1652098,-7.033879 c 0,-1.1641412 0.9459747,-2.1101547 2.1101531,-2.1101547 0.4852579,0 0.9319229,0.1652115 1.287196,0.4361748 l 2.9399228,-1.332912 c -0.0069,-0.052876 -0.0069,-0.1054405 -0.0069,-0.1583202 0,-1.1641779 0.945858,-2.1101512 2.110192,-2.1101512 1.164294,0 2.110152,0.9459733 2.110152,2.1101512 0,1.1640645 -0.945858,2.1101548 -2.110152,2.1101548 -0.541619,0 -1.037716,-0.2040372 -1.410292,-0.5416191 l -2.8345614,1.287272 c 0.017536,0.1019984 0.024541,0.2039604 0.024541,0.3094044 0,0.105481 -0.00704,0.207479 -0.024541,0.309441 l 2.8346344,1.28375 c 0.372575,-0.3341 0.868633,-0.538057 1.410291,-0.538057 1.164294,0 2.110152,0.945858 2.110152,2.110191 0,1.164295 -0.945858,2.110152 -2.110152,2.110152 -1.164332,0 -2.110192,-0.945857 -2.110192,-2.110152 0,-0.05296 0,-0.105483 0.0069,-0.158437 L 8.3677142,11.95391 c -0.3552731,0.274332 -0.8019381,0.439543 -1.287196,0.439543 -1.1641784,0 -2.1101531,-0.945856 -2.1101531,-2.110151 z"
   id="path3"
   style="fill:#010101;fill-rule:evenodd" />
</svg>